<mxfile host="app.diagrams.net" modified="2024-06-28T03:20:36.865Z" agent="Mozilla/5.0 (Macintosh; Intel Mac OS X 10_15_7) AppleWebKit/537.36 (KHTML, like Gecko) Chrome/126.0.0.0 Safari/537.36" etag="ubfeEVLcsA060gwGBI7Y" version="24.6.4" type="github">
  <diagram name="第 1 页" id="WaZuOTDAI5xNpoYuCPYG">
    <mxGraphModel dx="1244" dy="668" grid="1" gridSize="10" guides="1" tooltips="1" connect="1" arrows="1" fold="1" page="1" pageScale="1" pageWidth="827" pageHeight="1169" math="0" shadow="0">
      <root>
        <mxCell id="0" />
        <mxCell id="1" parent="0" />
        <mxCell id="Ye7YH3R_bXKAR_QagjJx-12" value="" style="rounded=0;whiteSpace=wrap;html=1;fillColor=none;dashed=1;" vertex="1" parent="1">
          <mxGeometry x="250" y="510" width="450" height="170" as="geometry" />
        </mxCell>
        <mxCell id="rl_vAYmElTW6NhnyLuoe-17" value="报价" style="text;html=1;align=center;verticalAlign=middle;whiteSpace=wrap;rounded=0;fillColor=#dae8fc;strokeColor=#6c8ebf;" parent="1" vertex="1">
          <mxGeometry x="370" y="220" width="60" height="30" as="geometry" />
        </mxCell>
        <mxCell id="rl_vAYmElTW6NhnyLuoe-18" value="markup" style="text;html=1;align=center;verticalAlign=middle;whiteSpace=wrap;rounded=0;fillColor=#dae8fc;strokeColor=#6c8ebf;" parent="1" vertex="1">
          <mxGeometry x="540" y="220" width="60" height="30" as="geometry" />
        </mxCell>
        <mxCell id="rl_vAYmElTW6NhnyLuoe-24" style="edgeStyle=orthogonalEdgeStyle;rounded=0;orthogonalLoop=1;jettySize=auto;html=1;exitX=1;exitY=0.5;exitDx=0;exitDy=0;" parent="1" source="rl_vAYmElTW6NhnyLuoe-21" edge="1">
          <mxGeometry relative="1" as="geometry">
            <mxPoint x="470" y="305" as="targetPoint" />
          </mxGeometry>
        </mxCell>
        <mxCell id="rl_vAYmElTW6NhnyLuoe-21" value="草稿" style="text;html=1;align=center;verticalAlign=middle;whiteSpace=wrap;rounded=0;" parent="1" vertex="1">
          <mxGeometry x="370" y="290" width="60" height="30" as="geometry" />
        </mxCell>
        <mxCell id="rl_vAYmElTW6NhnyLuoe-22" value="" style="shape=flexArrow;endArrow=classic;html=1;rounded=0;" parent="1" edge="1">
          <mxGeometry width="50" height="50" relative="1" as="geometry">
            <mxPoint x="480" y="220" as="sourcePoint" />
            <mxPoint x="480" y="670" as="targetPoint" />
          </mxGeometry>
        </mxCell>
        <mxCell id="rl_vAYmElTW6NhnyLuoe-25" style="edgeStyle=orthogonalEdgeStyle;rounded=0;orthogonalLoop=1;jettySize=auto;html=1;exitX=0;exitY=0.5;exitDx=0;exitDy=0;" parent="1" source="rl_vAYmElTW6NhnyLuoe-23" edge="1">
          <mxGeometry relative="1" as="geometry">
            <mxPoint x="500" y="355" as="targetPoint" />
          </mxGeometry>
        </mxCell>
        <mxCell id="rl_vAYmElTW6NhnyLuoe-23" value="草稿" style="text;html=1;align=center;verticalAlign=middle;whiteSpace=wrap;rounded=0;" parent="1" vertex="1">
          <mxGeometry x="540" y="340" width="60" height="30" as="geometry" />
        </mxCell>
        <mxCell id="rl_vAYmElTW6NhnyLuoe-26" style="edgeStyle=orthogonalEdgeStyle;rounded=0;orthogonalLoop=1;jettySize=auto;html=1;exitX=0;exitY=0.5;exitDx=0;exitDy=0;" parent="1" source="rl_vAYmElTW6NhnyLuoe-27" edge="1">
          <mxGeometry relative="1" as="geometry">
            <mxPoint x="500" y="415" as="targetPoint" />
          </mxGeometry>
        </mxCell>
        <mxCell id="rl_vAYmElTW6NhnyLuoe-27" value="关联" style="text;html=1;align=center;verticalAlign=middle;whiteSpace=wrap;rounded=0;" parent="1" vertex="1">
          <mxGeometry x="540" y="400" width="60" height="30" as="geometry" />
        </mxCell>
        <mxCell id="rl_vAYmElTW6NhnyLuoe-28" style="edgeStyle=orthogonalEdgeStyle;rounded=0;orthogonalLoop=1;jettySize=auto;html=1;exitX=0;exitY=0.5;exitDx=0;exitDy=0;" parent="1" source="rl_vAYmElTW6NhnyLuoe-29" edge="1">
          <mxGeometry relative="1" as="geometry">
            <mxPoint x="500" y="475" as="targetPoint" />
          </mxGeometry>
        </mxCell>
        <mxCell id="rl_vAYmElTW6NhnyLuoe-29" value="测试" style="text;html=1;align=center;verticalAlign=middle;whiteSpace=wrap;rounded=0;" parent="1" vertex="1">
          <mxGeometry x="540" y="460" width="60" height="30" as="geometry" />
        </mxCell>
        <mxCell id="rl_vAYmElTW6NhnyLuoe-30" style="edgeStyle=orthogonalEdgeStyle;rounded=0;orthogonalLoop=1;jettySize=auto;html=1;exitX=1;exitY=0.5;exitDx=0;exitDy=0;" parent="1" source="rl_vAYmElTW6NhnyLuoe-31" edge="1">
          <mxGeometry relative="1" as="geometry">
            <mxPoint x="470" y="585" as="targetPoint" />
          </mxGeometry>
        </mxCell>
        <mxCell id="rl_vAYmElTW6NhnyLuoe-31" value="测试" style="text;html=1;align=center;verticalAlign=middle;whiteSpace=wrap;rounded=0;" parent="1" vertex="1">
          <mxGeometry x="370" y="570" width="60" height="30" as="geometry" />
        </mxCell>
        <mxCell id="rl_vAYmElTW6NhnyLuoe-32" style="edgeStyle=orthogonalEdgeStyle;rounded=0;orthogonalLoop=1;jettySize=auto;html=1;exitX=1;exitY=0.5;exitDx=0;exitDy=0;" parent="1" source="rl_vAYmElTW6NhnyLuoe-33" edge="1">
          <mxGeometry relative="1" as="geometry">
            <mxPoint x="470" y="625" as="targetPoint" />
          </mxGeometry>
        </mxCell>
        <mxCell id="rl_vAYmElTW6NhnyLuoe-33" value="启用" style="text;html=1;align=center;verticalAlign=middle;whiteSpace=wrap;rounded=0;" parent="1" vertex="1">
          <mxGeometry x="370" y="610" width="60" height="30" as="geometry" />
        </mxCell>
        <mxCell id="Ye7YH3R_bXKAR_QagjJx-10" style="edgeStyle=orthogonalEdgeStyle;rounded=0;orthogonalLoop=1;jettySize=auto;html=1;exitX=0;exitY=0.5;exitDx=0;exitDy=0;" edge="1" parent="1" source="rl_vAYmElTW6NhnyLuoe-36">
          <mxGeometry relative="1" as="geometry">
            <mxPoint x="500" y="545.047619047619" as="targetPoint" />
          </mxGeometry>
        </mxCell>
        <mxCell id="rl_vAYmElTW6NhnyLuoe-36" value="启用" style="text;html=1;align=center;verticalAlign=middle;whiteSpace=wrap;rounded=0;" parent="1" vertex="1">
          <mxGeometry x="540" y="530" width="60" height="30" as="geometry" />
        </mxCell>
      </root>
    </mxGraphModel>
  </diagram>
</mxfile>
